P3
45 45
255
0 0 0 255 105 180 0 0 0 0 0 0 0 0 0 0 0 0 0 0 0 0 0 0 0 0 0 0 0 0 0 0 0 0 0 0 0 0 0 0 0 0 0 0 0 0 0 0 0 0 0 0 0 0 0 0 0 0 0 0 0 0 0 0 0 0 0 0 0 0 0 0 0 0 0 0 0 0 0 0 0 0 0 0 0 0 0 0 0 0 0 0 0 0 0 0 0 0 0 0 0 0 0 0 0 0 0 0 0 0 0 0 0 0 0 0 0 0 0 0 0 0 0 0 0 0 0 0 0 0 0 0 0 0 0 
0 0 0 255 105 180 0 0 0 255 255 255 255 255 255 255 255 255 255 255 255 255 255 255 0 0 0 255 255 255 255 255 255 255 105 180 255 105 180 255 105 180 0 0 0 255 255 255 255 255 255 255 255 255 255 255 255 255 255 255 0 0 0 255 255 255 255 255 255 255 255 255 0 0 0 255 255 255 255 255 255 255 255 255 255 255 255 255 255 255 255 255 255 255 255 255 0 0 0 255 255 255 0 0 0 255 255 255 255 255 255 255 255 255 255 255 255 255 255 255 255 255 255 255 255 255 255 255 255 255 255 255 0 0 0 
0 0 0 255 105 180 0 0 0 255 255 255 0 0 0 0 0 0 0 0 0 255 255 255 0 0 0 255 255 255 0 0 0 255 105 180 0 0 0 255 105 180 0 0 0 255 255 255 0 0 0 255 255 255 0 0 0 255 255 255 0 0 0 255 255 255 0 0 0 255 255 255 0 0 0 255 255 255 0 0 0 0 0 0 0 0 0 0 0 0 0 0 0 255 255 255 0 0 0 255 255 255 0 0 0 255 255 255 0 0 0 0 0 0 0 0 0 255 255 255 0 0 0 0 0 0 0 0 0 255 255 255 0 0 0 
0 0 0 255 105 180 0 0 0 255 255 255 255 255 255 255 255 255 0 0 0 255 255 255 0 0 0 255 255 255 0 0 0 255 105 180 0 0 0 255 105 180 0 0 0 255 255 255 0 0 0 255 255 255 0 0 0 255 255 255 255 255 255 255 255 255 0 0 0 255 255 255 0 0 0 255 255 255 0 0 0 255 255 255 255 255 255 255 255 255 0 0 0 255 255 255 255 255 255 255 255 255 0 0 0 255 255 255 255 255 255 255 255 255 0 0 0 255 255 255 255 255 255 255 255 255 0 0 0 255 255 255 0 0 0 
0 0 0 255 105 180 0 0 0 0 0 0 0 0 0 255 255 255 0 0 0 0 0 0 0 0 0 255 255 255 0 0 0 255 105 180 0 0 0 255 105 180 0 0 0 0 0 0 0 0 0 255 255 255 0 0 0 0 0 0 0 0 0 0 0 0 0 0 0 255 255 255 0 0 0 255 255 255 0 0 0 255 255 255 0 0 0 255 255 255 0 0 0 0 0 0 0 0 0 255 255 255 0 0 0 0 0 0 0 0 0 255 255 255 0 0 0 0 0 0 0 0 0 255 255 255 0 0 0 0 0 0 0 0 0 
0 0 0 255 105 180 255 105 180 255 105 180 0 0 0 255 255 255 255 255 255 255 255 255 255 255 255 255 255 255 0 0 0 255 105 180 0 0 0 255 105 180 255 105 180 255 105 180 0 0 0 255 255 255 255 255 255 255 255 255 0 0 0 255 255 255 0 0 0 255 255 255 255 255 255 255 255 255 0 0 0 255 255 255 0 0 0 255 255 255 255 255 255 255 255 255 255 255 255 255 255 255 0 0 0 255 255 255 255 255 255 255 255 255 255 255 255 255 255 255 0 0 0 255 255 255 255 255 255 255 255 255 0 0 0 
0 0 0 0 0 0 0 0 0 255 105 180 0 0 0 0 0 0 0 0 0 0 0 0 0 0 0 0 0 0 0 0 0 255 105 180 0 0 0 0 0 0 0 0 0 255 105 180 0 0 0 255 255 255 0 0 0 255 255 255 0 0 0 255 255 255 0 0 0 0 0 0 0 0 0 255 255 255 0 0 0 0 0 0 0 0 0 0 0 0 0 0 0 255 255 255 0 0 0 0 0 0 0 0 0 255 255 255 0 0 0 0 0 0 0 0 0 0 0 0 0 0 0 255 255 255 0 0 0 255 255 255 0 0 0 
0 0 0 255 255 255 0 0 0 255 105 180 0 0 0 255 105 180 255 105 180 255 105 180 0 0 0 255 105 180 255 105 180 255 105 180 0 0 0 255 255 255 0 0 0 255 105 180 0 0 0 255 255 255 0 0 0 255 255 255 0 0 0 255 255 255 0 0 0 255 255 255 255 255 255 255 255 255 0 0 0 255 255 255 255 255 255 255 255 255 0 0 0 255 255 255 255 255 255 255 255 255 0 0 0 255 255 255 0 0 0 255 105 180 255 105 180 255 105 180 0 0 0 255 255 255 0 0 0 255 255 255 0 0 0 
0 0 0 255 255 255 0 0 0 255 105 180 0 0 0 255 105 180 0 0 0 255 105 180 0 0 0 255 105 180 0 0 0 0 0 0 0 0 0 255 255 255 0 0 0 255 105 180 0 0 0 0 0 0 0 0 0 255 255 255 0 0 0 255 255 255 0 0 0 255 255 255 0 0 0 0 0 0 0 0 0 255 255 255 0 0 0 255 255 255 0 0 0 0 0 0 0 0 0 0 0 0 0 0 0 255 255 255 0 0 0 255 105 180 0 0 0 255 105 180 0 0 0 255 255 255 0 0 0 255 255 255 0 0 0 
0 0 0 255 105 180 255 105 180 255 105 180 0 0 0 255 105 180 0 0 0 255 105 180 255 105 180 255 105 180 0 0 0 255 255 255 255 255 255 255 255 255 0 0 0 255 105 180 255 105 180 255 105 180 0 0 0 255 255 255 0 0 0 255 255 255 255 255 255 255 255 255 255 255 255 255 255 255 0 0 0 255 255 255 0 0 0 255 255 255 255 255 255 255 255 255 255 255 255 255 255 255 255 255 255 255 255 255 0 0 0 255 105 180 0 0 0 255 105 180 0 0 0 255 255 255 0 0 0 255 255 255 0 0 0 
0 0 0 255 105 180 0 0 0 0 0 0 0 0 0 255 105 180 0 0 0 0 0 0 0 0 0 0 0 0 0 0 0 255 255 255 0 0 0 0 0 0 0 0 0 0 0 0 0 0 0 255 105 180 0 0 0 255 255 255 0 0 0 0 0 0 0 0 0 0 0 0 0 0 0 0 0 0 0 0 0 255 255 255 0 0 0 0 0 0 0 0 0 0 0 0 0 0 0 0 0 0 0 0 0 0 0 0 0 0 0 255 105 180 0 0 0 255 105 180 0 0 0 0 0 0 0 0 0 255 255 255 0 0 0 
0 0 0 255 105 180 0 0 0 255 255 255 255 255 255 255 105 180 255 105 180 255 105 180 0 0 0 255 255 255 255 255 255 255 255 255 0 0 0 255 105 180 255 105 180 255 105 180 0 0 0 255 105 180 0 0 0 255 255 255 255 255 255 255 255 255 255 255 255 255 255 255 255 255 255 255 255 255 255 255 255 255 255 255 255 255 255 255 255 255 255 255 255 255 255 255 0 0 0 255 255 255 255 255 255 255 255 255 0 0 0 255 105 180 0 0 0 255 105 180 255 105 180 255 105 180 0 0 0 255 255 255 0 0 0 
0 0 0 255 105 180 0 0 0 0 0 0 0 0 0 255 255 255 0 0 0 255 105 180 0 0 0 255 255 255 0 0 0 255 255 255 0 0 0 255 105 180 0 0 0 255 105 180 0 0 0 255 105 180 0 0 0 255 255 255 0 0 0 0 0 0 0 0 0 0 0 0 0 0 0 0 0 0 0 0 0 0 0 0 0 0 0 0 0 0 0 0 0 255 255 255 0 0 0 255 255 255 0 0 0 255 255 255 0 0 0 255 105 180 0 0 0 0 0 0 0 0 0 255 105 180 0 0 0 255 255 255 0 0 0 
0 0 0 255 105 180 255 105 180 255 105 180 0 0 0 255 255 255 0 0 0 255 105 180 0 0 0 255 255 255 0 0 0 255 255 255 0 0 0 255 105 180 0 0 0 255 105 180 255 105 180 255 105 180 0 0 0 255 255 255 255 255 255 255 255 255 0 0 0 255 105 180 255 105 180 255 105 180 0 0 0 255 255 255 255 255 255 255 255 255 255 255 255 255 255 255 255 255 255 255 255 255 0 0 0 255 255 255 0 0 0 255 105 180 0 0 0 255 255 255 0 0 0 255 105 180 0 0 0 255 255 255 0 0 0 
0 0 0 0 0 0 0 0 0 255 105 180 0 0 0 0 0 0 0 0 0 255 105 180 0 0 0 255 255 255 0 0 0 255 255 255 0 0 0 255 105 180 0 0 0 0 0 0 0 0 0 0 0 0 0 0 0 0 0 0 0 0 0 0 0 0 0 0 0 255 105 180 0 0 0 255 105 180 0 0 0 0 0 0 0 0 0 0 0 0 0 0 0 0 0 0 0 0 0 0 0 0 0 0 0 0 0 0 0 0 0 255 105 180 0 0 0 255 255 255 0 0 0 255 105 180 0 0 0 255 255 255 0 0 0 
0 0 0 255 105 180 255 105 180 255 105 180 0 0 0 255 105 180 255 105 180 255 105 180 0 0 0 255 255 255 0 0 0 255 255 255 0 0 0 255 105 180 255 105 180 255 105 180 255 105 180 255 105 180 255 105 180 255 105 180 255 105 180 255 105 180 255 105 180 255 105 180 0 0 0 255 105 180 255 105 180 255 105 180 255 105 180 255 105 180 255 105 180 255 105 180 255 105 180 255 105 180 255 105 180 255 105 180 255 105 180 255 105 180 0 0 0 255 105 180 255 105 180 255 105 180 0 0 0 255 255 255 0 0 0 
0 0 0 255 105 180 0 0 0 0 0 0 0 0 0 255 105 180 0 0 0 0 0 0 0 0 0 0 0 0 0 0 0 255 255 255 0 0 0 0 0 0 0 0 0 0 0 0 0 0 0 0 0 0 0 0 0 0 0 0 0 0 0 0 0 0 0 0 0 0 0 0 0 0 0 0 0 0 0 0 0 0 0 0 0 0 0 0 0 0 0 0 0 0 0 0 0 0 0 0 0 0 0 0 0 0 0 0 0 0 0 0 0 0 0 0 0 255 105 180 0 0 0 0 0 0 0 0 0 255 255 255 0 0 0 
0 0 0 255 105 180 0 0 0 255 255 255 255 255 255 255 105 180 255 105 180 255 105 180 0 0 0 255 255 255 255 255 255 255 255 255 0 0 0 255 255 255 255 255 255 255 255 255 255 255 255 255 255 255 255 255 255 255 255 255 0 0 0 255 255 255 0 0 0 255 105 180 255 105 180 255 105 180 255 105 180 255 105 180 255 255 255 255 255 255 255 255 255 255 255 255 255 255 255 255 255 255 0 0 0 255 105 180 255 105 180 255 105 180 255 105 180 255 105 180 0 0 0 255 255 255 255 255 255 255 255 255 0 0 0 
0 0 0 255 105 180 0 0 0 0 0 0 0 0 0 255 255 255 0 0 0 255 105 180 0 0 0 255 255 255 0 0 0 0 0 0 0 0 0 255 255 255 0 0 0 255 255 255 0 0 0 0 0 0 0 0 0 255 255 255 0 0 0 255 255 255 0 0 0 255 105 180 0 0 0 0 0 0 0 0 0 255 105 180 0 0 0 0 0 0 0 0 0 0 0 0 0 0 0 0 0 0 0 0 0 255 105 180 0 0 0 0 0 0 0 0 0 0 0 0 0 0 0 255 255 255 0 0 0 0 0 0 0 0 0 
0 0 0 255 105 180 255 105 180 255 105 180 0 0 0 255 255 255 0 0 0 255 105 180 0 0 0 255 255 255 255 255 255 255 255 255 0 0 0 255 255 255 0 0 0 255 255 255 0 0 0 255 255 255 255 255 255 255 255 255 0 0 0 255 255 255 0 0 0 255 105 180 255 105 180 255 105 180 0 0 0 255 105 180 255 105 180 255 105 180 255 105 180 255 105 180 255 105 180 255 105 180 0 0 0 255 105 180 0 0 0 255 255 255 255 255 255 255 255 255 255 255 255 255 255 255 255 255 255 255 255 255 0 0 0 
0 0 0 0 0 0 0 0 0 255 105 180 0 0 0 255 255 255 0 0 0 255 105 180 0 0 0 0 0 0 0 0 0 255 255 255 0 0 0 255 255 255 0 0 0 255 255 255 0 0 0 255 255 255 0 0 0 0 0 0 0 0 0 255 255 255 0 0 0 0 0 0 0 0 0 255 105 180 0 0 0 0 0 0 0 0 0 0 0 0 0 0 0 0 0 0 0 0 0 255 105 180 0 0 0 255 105 180 0 0 0 0 0 0 0 0 0 255 255 255 0 0 0 0 0 0 0 0 0 255 255 255 0 0 0 
0 0 0 255 255 255 0 0 0 255 105 180 0 0 0 255 255 255 0 0 0 255 105 180 255 105 180 255 105 180 0 0 0 255 255 255 255 255 255 255 255 255 0 0 0 255 255 255 0 0 0 255 255 255 0 0 0 255 255 255 255 255 255 255 255 255 255 255 255 255 255 255 0 0 0 255 105 180 255 105 180 255 105 180 255 105 180 255 105 180 255 105 180 255 105 180 0 0 0 255 105 180 0 0 0 255 105 180 255 105 180 255 105 180 0 0 0 255 255 255 0 0 0 255 255 255 255 255 255 255 255 255 0 0 0 
0 0 0 255 255 255 0 0 0 255 105 180 0 0 0 255 255 255 0 0 0 0 0 0 0 0 0 255 105 180 0 0 0 0 0 0 0 0 0 0 0 0 0 0 0 255 255 255 0 0 0 255 255 255 0 0 0 0 0 0 0 0 0 0 0 0 0 0 0 255 255 255 0 0 0 0 0 0 0 0 0 0 0 0 0 0 0 0 0 0 0 0 0 255 105 180 0 0 0 255 105 180 0 0 0 0 0 0 0 0 0 255 105 180 0 0 0 255 255 255 0 0 0 255 255 255 0 0 0 255 255 255 0 0 0 
0 0 0 255 255 255 0 0 0 255 105 180 0 0 0 255 255 255 255 255 255 255 255 255 0 0 0 255 105 180 0 0 0 255 255 255 255 255 255 255 255 255 255 255 255 255 255 255 0 0 0 255 255 255 255 255 255 255 255 255 255 255 255 255 255 255 255 255 255 255 255 255 255 255 255 255 255 255 0 0 0 255 105 180 255 105 180 255 105 180 0 0 0 255 105 180 0 0 0 255 105 180 255 255 255 255 255 255 0 0 0 255 105 180 0 0 0 255 255 255 0 0 0 255 255 255 0 0 0 255 255 255 0 0 0 
0 0 0 255 255 255 0 0 0 255 105 180 0 0 0 0 0 0 0 0 0 0 0 0 0 0 0 255 105 180 0 0 0 255 255 255 0 0 0 0 0 0 0 0 0 0 0 0 0 0 0 0 0 0 0 0 0 0 0 0 0 0 0 0 0 0 0 0 0 0 0 0 0 0 0 0 0 0 0 0 0 255 105 180 0 0 0 255 105 180 0 0 0 255 105 180 0 0 0 255 105 180 0 0 0 0 0 0 0 0 0 255 105 180 0 0 0 255 255 255 0 0 0 255 255 255 0 0 0 0 0 0 0 0 0 
0 0 0 255 255 255 0 0 0 255 105 180 255 105 180 255 105 180 255 105 180 255 105 180 0 0 0 255 105 180 0 0 0 255 255 255 0 0 0 255 105 180 255 105 180 255 105 180 255 105 180 255 105 180 255 105 180 255 105 180 255 105 180 255 105 180 255 105 180 255 105 180 0 0 0 255 105 180 255 105 180 255 105 180 0 0 0 255 105 180 255 105 180 255 105 180 0 0 0 255 105 180 255 105 180 255 105 180 255 105 180 255 105 180 0 0 0 255 255 255 0 0 0 255 255 255 255 255 255 255 255 255 0 0 0 
0 0 0 255 255 255 0 0 0 0 0 0 0 0 0 0 0 0 0 0 0 255 105 180 0 0 0 255 105 180 0 0 0 255 255 255 0 0 0 255 105 180 0 0 0 0 0 0 0 0 0 0 0 0 0 0 0 0 0 0 0 0 0 0 0 0 0 0 0 255 105 180 0 0 0 255 105 180 0 0 0 0 0 0 0 0 0 0 0 0 0 0 0 0 0 0 0 0 0 0 0 0 0 0 0 0 0 0 0 0 0 0 0 0 0 0 0 0 0 0 0 0 0 0 0 0 0 0 0 255 255 255 0 0 0 
0 0 0 255 255 255 255 255 255 255 255 255 255 255 255 255 255 255 0 0 0 255 105 180 255 105 180 255 105 180 0 0 0 255 255 255 0 0 0 255 105 180 255 105 180 255 105 180 255 105 180 255 105 180 255 105 180 255 105 180 255 105 180 255 105 180 0 0 0 255 105 180 255 105 180 255 105 180 0 0 0 255 255 255 255 255 255 255 255 255 255 255 255 255 255 255 255 255 255 255 255 255 0 0 0 255 255 255 255 255 255 255 255 255 255 255 255 255 255 255 255 255 255 255 255 255 255 255 255 255 255 255 0 0 0 
0 0 0 255 255 255 0 0 0 0 0 0 0 0 0 0 0 0 0 0 0 0 0 0 0 0 0 0 0 0 0 0 0 255 255 255 0 0 0 0 0 0 0 0 0 0 0 0 0 0 0 0 0 0 0 0 0 0 0 0 0 0 0 255 105 180 0 0 0 0 0 0 0 0 0 0 0 0 0 0 0 255 255 255 0 0 0 0 0 0 0 0 0 0 0 0 0 0 0 255 255 255 0 0 0 255 255 255 0 0 0 0 0 0 0 0 0 255 255 255 0 0 0 0 0 0 0 0 0 255 255 255 0 0 0 
0 0 0 255 255 255 255 255 255 255 255 255 255 255 255 255 255 255 255 255 255 255 255 255 255 255 255 255 255 255 255 255 255 255 255 255 0 0 0 255 255 255 255 255 255 255 255 255 255 255 255 255 255 255 0 0 0 255 255 255 0 0 0 255 105 180 255 105 180 255 105 180 255 105 180 255 105 180 0 0 0 255 255 255 0 0 0 255 255 255 255 255 255 255 255 255 0 0 0 255 255 255 0 0 0 255 255 255 255 255 255 255 255 255 0 0 0 255 255 255 0 0 0 255 255 255 255 255 255 255 255 255 0 0 0 
0 0 0 0 0 0 0 0 0 0 0 0 0 0 0 255 255 255 0 0 0 255 255 255 0 0 0 0 0 0 0 0 0 255 255 255 0 0 0 255 255 255 0 0 0 0 0 0 0 0 0 255 255 255 0 0 0 255 255 255 0 0 0 0 0 0 0 0 0 0 0 0 0 0 0 255 105 180 0 0 0 0 0 0 0 0 0 255 255 255 0 0 0 255 255 255 0 0 0 255 255 255 0 0 0 0 0 0 0 0 0 255 255 255 0 0 0 255 255 255 0 0 0 255 255 255 0 0 0 0 0 0 0 0 0 
0 0 0 255 255 255 255 255 255 255 255 255 0 0 0 255 255 255 0 0 0 255 255 255 0 0 0 255 255 255 255 255 255 255 255 255 0 0 0 255 255 255 0 0 0 255 255 255 255 255 255 255 255 255 0 0 0 255 255 255 255 255 255 255 255 255 255 255 255 255 255 255 0 0 0 255 105 180 255 105 180 255 105 180 0 0 0 255 255 255 0 0 0 255 255 255 255 255 255 255 255 255 255 255 255 255 255 255 0 0 0 255 255 255 0 0 0 255 255 255 0 0 0 255 255 255 255 255 255 255 255 255 0 0 0 
0 0 0 255 255 255 0 0 0 255 255 255 0 0 0 0 0 0 0 0 0 255 255 255 0 0 0 255 255 255 0 0 0 0 0 0 0 0 0 255 255 255 0 0 0 255 255 255 0 0 0 0 0 0 0 0 0 0 0 0 0 0 0 0 0 0 0 0 0 255 255 255 0 0 0 0 0 0 0 0 0 255 105 180 0 0 0 255 255 255 0 0 0 0 0 0 0 0 0 0 0 0 0 0 0 0 0 0 0 0 0 255 255 255 0 0 0 255 255 255 0 0 0 0 0 0 0 0 0 255 255 255 0 0 0 
0 0 0 255 255 255 0 0 0 255 255 255 255 255 255 255 255 255 255 255 255 255 255 255 0 0 0 255 255 255 0 0 0 255 255 255 255 255 255 255 255 255 0 0 0 255 255 255 255 255 255 255 255 255 0 0 0 255 255 255 255 255 255 255 255 255 255 255 255 255 255 255 0 0 0 255 105 180 255 105 180 255 105 180 0 0 0 255 255 255 255 255 255 255 255 255 255 255 255 255 255 255 255 255 255 255 255 255 255 255 255 255 255 255 0 0 0 255 255 255 0 0 0 255 255 255 255 255 255 255 255 255 0 0 0 
0 0 0 255 255 255 0 0 0 0 0 0 0 0 0 0 0 0 0 0 0 0 0 0 0 0 0 255 255 255 0 0 0 255 255 255 0 0 0 0 0 0 0 0 0 0 0 0 0 0 0 255 255 255 0 0 0 255 255 255 0 0 0 0 0 0 0 0 0 0 0 0 0 0 0 255 105 180 0 0 0 0 0 0 0 0 0 255 255 255 0 0 0 0 0 0 0 0 0 0 0 0 0 0 0 0 0 0 0 0 0 0 0 0 0 0 0 255 255 255 0 0 0 0 0 0 0 0 0 0 0 0 0 0 0 
0 0 0 255 255 255 0 0 0 255 255 255 255 255 255 255 255 255 255 255 255 255 255 255 0 0 0 255 255 255 255 255 255 255 255 255 0 0 0 255 255 255 255 255 255 255 255 255 0 0 0 255 255 255 255 255 255 255 255 255 0 0 0 255 105 180 255 105 180 255 105 180 255 105 180 255 105 180 0 0 0 255 255 255 0 0 0 255 255 255 0 0 0 255 255 255 255 255 255 255 255 255 255 255 255 255 255 255 255 255 255 255 255 255 0 0 0 255 255 255 255 255 255 255 255 255 255 255 255 255 255 255 0 0 0 
0 0 0 255 255 255 0 0 0 255 255 255 0 0 0 255 255 255 0 0 0 0 0 0 0 0 0 0 0 0 0 0 0 0 0 0 0 0 0 255 255 255 0 0 0 255 255 255 0 0 0 255 255 255 0 0 0 0 0 0 0 0 0 255 105 180 0 0 0 0 0 0 0 0 0 0 0 0 0 0 0 255 255 255 0 0 0 255 255 255 0 0 0 0 0 0 0 0 0 0 0 0 0 0 0 255 255 255 0 0 0 255 255 255 0 0 0 0 0 0 0 0 0 0 0 0 0 0 0 255 255 255 0 0 0 
0 0 0 255 255 255 0 0 0 255 255 255 0 0 0 255 255 255 255 255 255 255 255 255 255 255 255 255 255 255 255 255 255 255 255 255 255 255 255 255 255 255 0 0 0 255 255 255 255 255 255 255 255 255 0 0 0 255 105 180 255 105 180 255 105 180 0 0 0 255 255 255 255 255 255 255 255 255 0 0 0 255 255 255 255 255 255 255 255 255 255 255 255 255 255 255 255 255 255 255 255 255 255 255 255 255 255 255 0 0 0 255 255 255 255 255 255 255 255 255 255 255 255 255 255 255 0 0 0 255 255 255 0 0 0 
0 0 0 255 255 255 0 0 0 0 0 0 0 0 0 255 255 255 0 0 0 0 0 0 0 0 0 0 0 0 0 0 0 0 0 0 0 0 0 0 0 0 0 0 0 255 255 255 0 0 0 0 0 0 0 0 0 255 105 180 0 0 0 0 0 0 0 0 0 255 255 255 0 0 0 0 0 0 0 0 0 255 255 255 0 0 0 0 0 0 0 0 0 0 0 0 0 0 0 0 0 0 0 0 0 0 0 0 0 0 0 0 0 0 0 0 0 0 0 0 0 0 0 0 0 0 0 0 0 255 255 255 0 0 0 
0 0 0 255 255 255 255 255 255 255 255 255 0 0 0 255 255 255 255 255 255 255 255 255 0 0 0 255 255 255 255 255 255 255 255 255 255 255 255 255 255 255 0 0 0 255 255 255 255 255 255 255 255 255 0 0 0 255 105 180 255 105 180 255 105 180 0 0 0 255 255 255 0 0 0 255 255 255 255 255 255 255 255 255 0 0 0 255 105 180 255 105 180 255 105 180 255 105 180 255 105 180 0 0 0 255 105 180 255 105 180 255 105 180 255 105 180 255 105 180 255 105 180 255 105 180 0 0 0 255 255 255 0 0 0 
0 0 0 255 255 255 0 0 0 255 255 255 0 0 0 0 0 0 0 0 0 0 0 0 0 0 0 255 255 255 0 0 0 0 0 0 0 0 0 255 255 255 0 0 0 0 0 0 0 0 0 0 0 0 0 0 0 0 0 0 0 0 0 255 105 180 0 0 0 255 255 255 0 0 0 255 255 255 0 0 0 0 0 0 0 0 0 255 105 180 0 0 0 0 0 0 0 0 0 255 105 180 0 0 0 255 105 180 0 0 0 0 0 0 0 0 0 0 0 0 0 0 0 255 105 180 0 0 0 255 255 255 0 0 0 
0 0 0 255 255 255 0 0 0 255 255 255 0 0 0 255 255 255 255 255 255 255 255 255 255 255 255 255 255 255 0 0 0 255 255 255 255 255 255 255 255 255 0 0 0 255 255 255 255 255 255 255 255 255 0 0 0 255 105 180 255 105 180 255 105 180 0 0 0 255 255 255 255 255 255 255 255 255 0 0 0 255 105 180 255 105 180 255 105 180 0 0 0 255 105 180 255 105 180 255 105 180 0 0 0 255 105 180 255 105 180 255 105 180 0 0 0 255 255 255 0 0 0 255 105 180 0 0 0 255 255 255 0 0 0 
0 0 0 255 255 255 0 0 0 255 255 255 0 0 0 255 255 255 0 0 0 0 0 0 0 0 0 0 0 0 0 0 0 255 255 255 0 0 0 0 0 0 0 0 0 255 255 255 0 0 0 255 255 255 0 0 0 255 105 180 0 0 0 0 0 0 0 0 0 0 0 0 0 0 0 0 0 0 0 0 0 255 105 180 0 0 0 0 0 0 0 0 0 255 105 180 0 0 0 0 0 0 0 0 0 0 0 0 0 0 0 255 105 180 0 0 0 255 255 255 0 0 0 255 105 180 0 0 0 255 255 255 0 0 0 
0 0 0 255 255 255 0 0 0 255 255 255 255 255 255 255 255 255 255 255 255 255 255 255 255 255 255 255 255 255 0 0 0 255 255 255 255 255 255 255 255 255 255 255 255 255 255 255 0 0 0 255 255 255 255 255 255 255 105 180 255 105 180 255 105 180 255 105 180 255 105 180 255 105 180 255 105 180 255 105 180 255 105 180 0 0 0 255 255 255 255 255 255 255 105 180 255 105 180 255 105 180 255 105 180 255 105 180 255 105 180 255 105 180 0 0 0 255 255 255 255 255 255 255 105 180 255 105 180 255 105 180 0 0 0 
0 0 0 0 0 0 0 0 0 0 0 0 0 0 0 0 0 0 0 0 0 0 0 0 0 0 0 0 0 0 0 0 0 0 0 0 0 0 0 0 0 0 0 0 0 0 0 0 0 0 0 0 0 0 0 0 0 0 0 0 0 0 0 0 0 0 0 0 0 0 0 0 0 0 0 0 0 0 0 0 0 0 0 0 0 0 0 0 0 0 0 0 0 0 0 0 0 0 0 0 0 0 0 0 0 0 0 0 0 0 0 0 0 0 0 0 0 0 0 0 0 0 0 0 0 0 0 0 0 255 105 180 0 0 0 
